<?xml version="1.0" encoding="utf-8"?>
<!-- Generator: Adobe Illustrator 21.0.0, SVG Export Plug-In . SVG Version: 6.00 Build 0)  -->
<svg version="1.1" id="ARTV-svg" xmlns="http://www.w3.org/2000/svg" xmlns:xlink="http://www.w3.org/1999/xlink" x="0px" y="0px"
	 viewBox="0 0 204.7 72" style="enable-background:new 0 0 204.7 72;" xml:space="preserve">
<style type="text/css">
	.ARTV-svg-st0{fill:#84329B;}
	.ARTV-svg-st1{fill:#FFFFFF;}
</style>
<path class="ARTV-svg-st0" d="M190.2,0H14.6C6.6,0,0,6.6,0,14.6v42.9C0,65.4,6.6,72,14.6,72h175.6c8,0,14.6-6.6,14.6-14.6V14.6
	C204.7,6.6,198.2,0,190.2,0z"/>
<g>
	<g>
		<path class="ARTV-svg-st1" d="M19.6,27.7c0-1.1,0.9-2,2-2c1.1,0,2,0.9,2,2v16.7c0,1.1-0.8,2.1-2,2.1c-1.1,0-2-0.9-2-2.1V27.7z"/>
		<path class="ARTV-svg-st1" d="M46.8,27.7c0-1.1,0.9-2,2-2c1.1,0,2,0.9,2,2v16.7c0,1.1-0.8,2.1-2,2.1c-1.1,0-2-0.9-2-2.1V27.7z"/>
		<path class="ARTV-svg-st1" d="M39.8,40.2c0.4-0.7,0.8-1.2,1.7-1.2c0.9,0,1.9,0.8,1.9,1.9c0,0.4,0,0.6-0.2,1.1c-1.3,2.9-4.4,4.6-7.6,4.6
			c-4.9,0-8.3-3.6-8.7-8.3c-0.1-1.5-0.1-3.1,0-4.6c0.4-4.7,3.8-8.3,8.7-8.3c3.3,0,6.4,1.7,7.6,4.6c0.2,0.5,0.2,0.7,0.2,1.1
			c0,1.1-1,1.9-1.9,1.9c-0.9,0-1.4-0.6-1.7-1.2c-0.8-1.6-2.3-2.6-4.1-2.6c-2.8,0-4.6,2.1-4.8,4.9c-0.1,1.2-0.1,2.5,0,3.7
			c0.2,2.9,1.9,4.8,4.8,4.8C37.5,42.8,39,41.8,39.8,40.2"/>
	</g>
	<g>
		<path class="ARTV-svg-st1" d="M133.7,25.7c-2.5,0-4.8,0.7-6.1,1.4c-0.5,0.3-0.8,0.7-0.8,1.3c0,0.3,0.1,0.6,0.3,0.8c0.2,0.2,0.5,0.4,0.9,0.4
			c0.2,0,0.5-0.1,0.7-0.2c1.8-0.7,3.4-1.1,4.9-1.1c3.6,0,5.1,1.5,5.1,4.9v1.2c-2.3-0.6-3.8-0.8-5.6-0.8c-4.7,0-7.8,2.5-7.8,6.5
			c0,4.1,2.8,6.6,7.6,6.6c3.9,0,6.8-1.4,7.9-2.2c0.5-0.3,0.6-0.7,0.6-1.2V32.9C141.4,28.1,138.9,25.7,133.7,25.7 M133.4,44
			c-3.6,0-5.4-1.3-5.4-4c0-2.5,2-4,5.4-4c1.8,0,3.2,0.3,5.5,0.9v5.5C137.6,43.3,135.2,44,133.4,44"/>
		<path class="ARTV-svg-st1" d="M155.6,27.6c0,0.6-0.5,1.4-1.5,1.4c-0.8,0-1.7-0.3-3-0.3c-2.2,0-3.1,1.1-3.1,3.5v12.6c0,0.9-0.7,1.6-1.6,1.6
			c-0.8,0-1.6-0.7-1.6-1.6V31.9c0-3.8,2.2-6.1,6.3-6.1c1.3,0,2.6,0.2,3.3,0.4C155.2,26.4,155.6,26.9,155.6,27.6"/>
		<path class="ARTV-svg-st1" d="M163.7,46.6c-4.1,0-5.9-2.7-5.9-6.3V23.5c0-0.9,0.7-1.6,1.5-1.6c0.9,0,1.6,0.7,1.6,1.6v3.2h5.8
			c0.8,0,1.5,0.6,1.5,1.4c0,0.8-0.7,1.4-1.5,1.4h-5.8v10.8c0,1.9,0.9,3.3,3,3.3c1.1,0,2.2-0.4,3.1-0.7c1.3-0.3,2,0.5,2,1.4
			c0,0.7-0.4,1.2-1.3,1.5C166.7,46.3,165.2,46.6,163.7,46.6"/>
		<path class="ARTV-svg-st1" d="M187.8,28.3L181.9,44c-0.6,1.6-1.7,2.4-3,2.4c-1.3,0-2.3-0.8-2.9-2.4l-6-15.9c-0.5-1.2,0.4-2.2,1.5-2.2
			c0.7,0,1.2,0.5,1.4,1.1l5.8,15.9c0,0.1,0.1,0.2,0.2,0.2c0.1,0,0.2,0,0.2-0.2l5.6-15.7c0.3-0.7,0.8-1.2,1.5-1.2
			C187.4,26.1,188.2,27.2,187.8,28.3"/>
	</g>
	<g>
		<circle class="ARTV-svg-st1" cx="88.5" cy="36" r="9"/>
		<g>
			<path class="ARTV-svg-st1" d="M69.2,36c0,4.9,4,9,9,9V27C73.2,27,69.2,31.1,69.2,36z"/>
			<path class="ARTV-svg-st1" d="M98.9,27L98.9,27V45l0,0c4.9,0,9-4,9-9S103.8,27,98.9,27z"/>
			<path class="ARTV-svg-st1" d="M88.5,55.3c4.9,0,9-4,9-9H79.6C79.6,51.3,83.6,55.3,88.5,55.3z"/>
			<path class="ARTV-svg-st1" d="M79.6,25.7L79.6,25.7l17.9,0v0c0-4.9-4-9-9-9C83.6,16.7,79.6,20.7,79.6,25.7z"/>
		</g>
		<g>
			<path class="ARTV-svg-st1" d="M69.7,25.7h8.5v-8.5C73.5,17.2,69.7,21,69.7,25.7z"/>
			<path class="ARTV-svg-st1" d="M98.9,17.2L98.9,17.2v8.5h8.5C107.4,21,103.6,17.2,98.9,17.2z"/>
			<path class="ARTV-svg-st1" d="M69.7,46.3h8.5v8.5C73.5,54.8,69.7,51,69.7,46.3z"/>
			<path class="ARTV-svg-st1" d="M98.9,54.8L98.9,54.8v-8.5h8.5C107.4,51,103.6,54.8,98.9,54.8z"/>
		</g>
		<g>
			<g>
				<path class="ARTV-svg-st1" d="M109.2,43.7V28.3c2.6,1.6,4.4,4.4,4.4,7.7C113.6,39.3,111.8,42.1,109.2,43.7z"/>
				<path class="ARTV-svg-st1" d="M67.8,28.3v15.4c-2.6-1.6-4.4-4.4-4.4-7.7C63.5,32.7,65.2,29.9,67.8,28.3z"/>
			</g>
			<g>
				<path class="ARTV-svg-st1" d="M96.2,15.3H80.8c1.6-2.6,4.4-4.4,7.7-4.4C91.8,10.9,94.7,12.7,96.2,15.3z"/>
				<path class="ARTV-svg-st1" d="M80.8,56.7h15.4c-1.6,2.6-4.4,4.4-7.7,4.4C85.3,61.1,82.4,59.3,80.8,56.7z"/>
			</g>
		</g>
	</g>
</g>
</svg>
