<?xml version="1.0" encoding="utf-8"?>
<!-- Generator: Adobe Illustrator 21.0.1, SVG Export Plug-In . SVG Version: 6.00 Build 0)  -->
<svg version="1.1" id="Layer_1" xmlns="http://www.w3.org/2000/svg" xmlns:xlink="http://www.w3.org/1999/xlink" x="0px" y="0px"
	 viewBox="0 0 412.4 94.2" style="enable-background:new 0 0 412.4 94.2;" xml:space="preserve">
<style type="text/css">
	.st0{opacity:0.15;fill:#1D1E1C;}
	.st1{clip-path:url(#SVGID_2_);fill:url(#SVGID_3_);}
	.st2{clip-path:url(#SVGID_5_);fill:url(#SVGID_6_);}
	.st3{clip-path:url(#SVGID_8_);fill:url(#SVGID_9_);}
	.st4{fill:#31AB10;}
	.st5{fill:#FFFFFF;}
	.st6{clip-path:url(#SVGID_11_);fill:url(#SVGID_12_);}
</style>
<g>
	<path class="st0" d="M135.5,37.5C129.9,12.4,105.1-3.4,80,2.2C54.9,7.8,39.1,32.7,44.7,57.8c5.6,25.1,30.5,40.9,55.6,35.3
		C125.3,87.5,141.1,62.6,135.5,37.5"/>
	<g>
		<g>
			<defs>
				<path id="SVGID_1_" d="M36.5,24.5L9,27.7c-5.1,0.6-8.4,4.6-7.9,9.5c0.3,2.2,1.3,4.1,2.8,5.3c1.8,1.4,4.1,2,6.9,1.7l11.9-1.4
					l-20,26c-2,2.5-2.9,5.4-2.6,8.2c0.5,4.1,3.8,7.9,9.3,7.9c0.5,0,0.9,0,1.4-0.1l29.1-3.4c2.4-0.3,4.6-1.4,6-3.1
					c1.5-1.7,2.1-4,1.9-6.3c-0.5-4-3.6-7.8-9.6-7.1l-12.8,1.5l19.9-26c1.9-2.5,2.7-5.3,2.4-8.1c-0.5-4.1-3.6-8-9.5-8
					C37.7,24.4,37.1,24.4,36.5,24.5"/>
			</defs>
			<clipPath id="SVGID_2_">
				<use xlink:href="#SVGID_1_"  style="overflow:visible;"/>
			</clipPath>
			
				<linearGradient id="SVGID_3_" gradientUnits="userSpaceOnUse" x1="-101.3452" y1="440.4769" x2="-100.0417" y2="440.4769" gradientTransform="matrix(0 46.4451 46.4451 0 -20434.0801 4731.3716)">
				<stop  offset="0" style="stop-color:#52DC09"/>
				<stop  offset="0.1062" style="stop-color:#4DD812"/>
				<stop  offset="0.4135" style="stop-color:#42CE27"/>
				<stop  offset="0.7146" style="stop-color:#3BC834"/>
				<stop  offset="1" style="stop-color:#39C638"/>
			</linearGradient>
			<rect x="-0.3" y="24.4" class="st1" width="48.3" height="60.5"/>
		</g>
		<g>
			<defs>
				<path id="SVGID_4_" d="M175,12.8c-4.1,0.5-7.5,3.7-6.8,9.5l2.2,19.7l-26.6-22.9c-2.6-2-5.5-2.9-8.2-2.6
					c-4.5,0.5-8.4,4.4-7.7,10.6l3.6,31.2c0.6,5,4.4,8.3,9.2,7.8c4.2-0.5,7.6-3.7,7-9.4l-1.8-15.5l26.6,22.8c2.4,1.8,5.3,2.7,8.1,2.4
					c4.6-0.5,8.5-4.3,7.8-11.2l-3.9-34.6c-0.5-4.6-3.9-7.8-8.2-7.8C175.7,12.7,175.4,12.8,175,12.8"/>
			</defs>
			<clipPath id="SVGID_5_">
				<use xlink:href="#SVGID_4_"  style="overflow:visible;"/>
			</clipPath>
			
				<linearGradient id="SVGID_6_" gradientUnits="userSpaceOnUse" x1="-101.2684" y1="441.1638" x2="-99.965" y2="441.1638" gradientTransform="matrix(0 41.132 41.132 0 -17987.8418 4178.1211)">
				<stop  offset="0" style="stop-color:#52DC09"/>
				<stop  offset="0.1062" style="stop-color:#4DD812"/>
				<stop  offset="0.4135" style="stop-color:#42CE27"/>
				<stop  offset="0.7146" style="stop-color:#3BC834"/>
				<stop  offset="1" style="stop-color:#39C638"/>
			</linearGradient>
			<rect x="127.2" y="12.7" class="st2" width="61.9" height="53.9"/>
		</g>
		<g>
			<defs>
				<path id="SVGID_7_" d="M219.3,6.8l-23,2.7c-5.8,0.7-9.3,4.9-8.6,10.6l4,34.5c0.6,5.2,4.4,8.5,9.5,8.5c0.4,0,0.9,0,1.4-0.1
					l23.2-2.7c1.9-0.2,3.6-1.1,4.8-2.6c1.2-1.5,1.7-3.3,1.5-5.2c-0.4-3.7-4.1-6.5-7.9-6.1l-18,2.1l-0.7-6.4l15.2-1.7
					c3.8-0.4,6.5-3.7,6-7.3c-0.4-3.9-3.5-6.2-7.5-5.7L203.7,29l-0.7-6.3l17.9-2.1c3.9-0.4,6.8-4,6.3-7.8c-0.4-3.6-3.3-6.1-7-6.1
					C219.9,6.7,219.6,6.7,219.3,6.8"/>
			</defs>
			<clipPath id="SVGID_8_">
				<use xlink:href="#SVGID_7_"  style="overflow:visible;"/>
			</clipPath>
			
				<linearGradient id="SVGID_9_" gradientUnits="userSpaceOnUse" x1="-101.3677" y1="441.4211" x2="-100.0643" y2="441.4211" gradientTransform="matrix(0 43.2145 43.2145 0 -18866.2168 4387.269)">
				<stop  offset="0" style="stop-color:#52DC09"/>
				<stop  offset="0.1062" style="stop-color:#4DD812"/>
				<stop  offset="0.4135" style="stop-color:#42CE27"/>
				<stop  offset="0.7146" style="stop-color:#3BC834"/>
				<stop  offset="1" style="stop-color:#39C638"/>
			</linearGradient>
			<rect x="187" y="6.7" class="st3" width="45.2" height="56.3"/>
		</g>
		<g>
			<path class="st4" d="M264.8,33.1c-0.1-0.1-0.2-0.2-0.4-0.2h-6.5c-0.2,0-0.5,0.2-0.5,0.4l-4.8,22.5c-0.3,1.4-0.7,2.4-1.3,3
				c-0.9,1-2.7,1-5.1,0.4c-0.2,0-0.3,0-0.4,0.1c-0.1,0.1-0.2,0.3-0.2,0.4v5.3c0,0.2,0.2,0.4,0.4,0.5c1.2,0.3,2.5,0.5,3.7,0.5
				c2.1,0,3.8-0.3,5.1-0.9c1.3-0.6,2.4-1.6,3.3-3c0.8-1.3,1.5-3.1,2-5.4l5-23.4C264.9,33.3,264.9,33.2,264.8,33.1"/>
			<path class="st4" d="M284.5,32.9H270c-0.2,0-0.5,0.2-0.5,0.4l-5.2,24.5c0,0.2,0,0.3,0.1,0.4c0.1,0.1,0.2,0.2,0.4,0.2h14.5
				c0.2,0,0.5-0.2,0.5-0.4l1.1-5.4c0-0.2,0-0.3-0.1-0.4c-0.1-0.1-0.2-0.2-0.4-0.2h-7.3l0.7-3.6h7c0.2,0,0.5-0.2,0.5-0.4l1.2-5.3
				c0-0.2,0-0.3-0.1-0.4c-0.1-0.1-0.2-0.2-0.4-0.2h-6.8l0.6-2.8h7.6c0.2,0,0.5-0.2,0.5-0.4l1.1-5.3c0-0.2,0-0.3-0.1-0.4
				C284.8,32.9,284.7,32.9,284.5,32.9"/>
			<path class="st4" d="M308.2,33.1c-0.1-0.1-0.2-0.2-0.4-0.2h-6.5c-0.2,0-0.5,0.2-0.5,0.4l-3.2,15c-0.3,1.4-0.7,2.4-1.3,3.1
				c-0.5,0.6-1.2,0.9-2.1,0.9c-1.1,0-1.5-0.5-1.5-1.6c0-0.5,0.1-1.1,0.2-1.8l3.3-15.3c0-0.2,0-0.3-0.1-0.4c-0.1-0.1-0.2-0.2-0.4-0.2
				h-6.5c-0.2,0-0.5,0.2-0.5,0.4l-3.3,15.5c-0.1,0.8-0.2,1.5-0.2,2.3c0,1.4,0.3,2.8,1,4c0.7,1.2,1.6,2.1,2.9,2.8
				c1.2,0.7,2.6,1,4.2,1c3.3,0,5.9-0.8,7.9-2.4c1.9-1.6,3.3-4,4-7.3l3.3-15.6C308.4,33.3,308.3,33.2,308.2,33.1"/>
			<path class="st4" d="M335.3,33.1c-0.1-0.1-0.2-0.2-0.4-0.2h-5.8c-0.2,0-0.5,0.2-0.5,0.4l-2.2,10.3c-0.2,1.1-0.5,2.5-0.7,4.1
				l-4.2-14.4c-0.1-0.2-0.3-0.4-0.5-0.4h-7.6c-0.2,0-0.5,0.2-0.5,0.4l-5.2,24.5c0,0.2,0,0.3,0.1,0.4c0.1,0.1,0.2,0.2,0.4,0.2h5.8
				c0.2,0,0.5-0.2,0.5-0.4l2.2-10.2c0.2-1.1,0.5-2.6,0.7-4.7l4.2,15c0.1,0.2,0.3,0.4,0.5,0.4h7.6c0.2,0,0.5-0.2,0.5-0.4l5.2-24.5
				C335.4,33.3,335.4,33.2,335.3,33.1"/>
			<path class="st4" d="M353.9,39.2c0.2,0,0.5-0.2,0.5-0.4l1.1-5.3c0-0.2,0-0.3-0.1-0.4c-0.1-0.1-0.2-0.2-0.4-0.2h-14.5
				c-0.2,0-0.5,0.2-0.5,0.4l-5.2,24.5c0,0.2,0,0.3,0.1,0.4c0.1,0.1,0.2,0.2,0.4,0.2h14.5c0.2,0,0.5-0.2,0.5-0.4l1.1-5.4
				c0-0.2,0-0.3-0.1-0.4c-0.1-0.1-0.2-0.2-0.4-0.2h-7.3l0.7-3.6h7c0.2,0,0.5-0.2,0.5-0.4l1.2-5.3c0-0.2,0-0.3-0.1-0.4
				c-0.1-0.1-0.2-0.2-0.4-0.2h-6.8l0.6-2.8H353.9z"/>
			<path class="st4" d="M373.4,34.4c-2.2-1.2-4.7-1.9-7.5-1.9c-1.7,0-3.3,0.3-4.7,1c-1.4,0.7-2.5,1.7-3.3,2.9
				c-0.8,1.2-1.2,2.7-1.2,4.2c0,1.4,0.3,2.7,1,3.9c0.6,1.2,1.6,2.3,3,3.4c1.3,1.1,1.8,1.5,1.9,1.7c0.2,0.2,0.4,0.5,0.5,0.7
				c0.1,0.2,0.1,0.4,0.1,0.6c0,0.5-0.1,0.8-0.4,1.1c-0.8,0.6-2.6,0.5-4.7-0.2c-1.2-0.4-2.2-0.9-3.1-1.4c-0.2-0.1-0.4-0.1-0.5,0
				c-0.2,0.1-0.3,0.3-0.3,0.5v5.9c0,0.2,0.1,0.3,0.2,0.4c0.8,0.6,1.8,1,3,1.3c1.1,0.3,2.3,0.4,3.6,0.4c3.1,0,5.5-0.7,7.2-2.2
				c1.8-1.5,2.6-3.6,2.6-6.2c0-1.5-0.3-2.8-1-4c-0.7-1.1-1.7-2.2-3.1-3.2c-1-0.8-1.7-1.4-2-1.8c-0.3-0.4-0.4-0.8-0.4-1.2
				c0-0.4,0.1-0.8,0.4-1c0.3-0.2,0.7-0.4,1.3-0.4c1.3,0,2.8,0.5,4.6,1.4c0.1,0.1,0.3,0.1,0.4,0c0.1,0,0.2-0.1,0.3-0.3l2.3-5
				C373.7,34.8,373.6,34.5,373.4,34.4"/>
			<path class="st4" d="M392.2,34.4c-2.2-1.2-4.7-1.9-7.5-1.9c-1.7,0-3.3,0.3-4.7,1c-1.4,0.7-2.5,1.7-3.3,2.9
				c-0.8,1.2-1.2,2.7-1.2,4.2c0,1.4,0.3,2.7,1,3.9c0.6,1.2,1.6,2.3,3,3.4c1.3,1.1,1.8,1.5,1.9,1.7c0.2,0.2,0.4,0.5,0.5,0.7
				c0.1,0.2,0.1,0.4,0.1,0.6c0,0.5-0.1,0.8-0.4,1.1c-0.8,0.6-2.6,0.5-4.7-0.2c-1.2-0.4-2.2-0.9-3.1-1.4c-0.2-0.1-0.4-0.1-0.5,0
				c-0.2,0.1-0.3,0.3-0.3,0.5v5.9c0,0.2,0.1,0.3,0.2,0.4c0.8,0.6,1.8,1,3,1.3c1.1,0.3,2.3,0.4,3.6,0.4c3,0,5.5-0.7,7.2-2.2
				c1.8-1.5,2.6-3.6,2.6-6.2c0-1.5-0.3-2.8-1-4c-0.7-1.1-1.7-2.2-3.1-3.2c-1-0.8-1.7-1.4-2-1.8c-0.3-0.4-0.4-0.8-0.4-1.2
				c0-0.4,0.1-0.8,0.4-1c0.3-0.2,0.7-0.4,1.3-0.4c1.3,0,2.8,0.5,4.6,1.4c0.1,0.1,0.3,0.1,0.4,0c0.1,0,0.2-0.1,0.3-0.3l2.3-5
				C392.5,34.8,392.4,34.5,392.2,34.4"/>
			<path class="st4" d="M412.3,33.1c-0.1-0.1-0.2-0.2-0.4-0.2h-14.5c-0.2,0-0.5,0.2-0.5,0.4l-5.2,24.5c0,0.2,0,0.3,0.1,0.4
				c0.1,0.1,0.2,0.2,0.4,0.2h14.5c0.2,0,0.5-0.2,0.5-0.4l1.1-5.4c0-0.2,0-0.3-0.1-0.4c-0.1-0.1-0.2-0.2-0.4-0.2h-7.3l0.7-3.6h7
				c0.2,0,0.5-0.2,0.5-0.4l1.2-5.3c0-0.2,0-0.3-0.1-0.4c-0.1-0.1-0.2-0.2-0.4-0.2h-6.8l0.6-2.8h7.6c0.2,0,0.5-0.2,0.5-0.4l1.1-5.3
				C412.4,33.3,412.4,33.2,412.3,33.1"/>
		</g>
	</g>
	<g>
		<path class="st5" d="M132.5,36.4C126.9,11.3,102-4.5,77,1.1C51.9,6.7,36.1,31.6,41.7,56.7C47.3,81.8,72.2,97.6,97.3,92
			C122.3,86.4,138.1,61.5,132.5,36.4"/>
	</g>
	<g>
		<defs>
			<path id="SVGID_10_" d="M78.3,7c-21.8,4.9-35.6,26.5-30.7,48.4C52.4,77.2,74.1,91,95.9,86.1c21.8-4.9,35.6-26.5,30.7-48.4
				C122.4,18.9,105.7,6,87.1,6C84.2,6,81.3,6.3,78.3,7"/>
		</defs>
		<clipPath id="SVGID_11_">
			<use xlink:href="#SVGID_10_"  style="overflow:visible;"/>
		</clipPath>
		
			<linearGradient id="SVGID_12_" gradientUnits="userSpaceOnUse" x1="-101.7218" y1="440.8255" x2="-100.4187" y2="440.8255" gradientTransform="matrix(0 62.1738 62.1738 0 -27320.6895 6330.4609)">
			<stop  offset="0" style="stop-color:#52DC09"/>
			<stop  offset="0.1062" style="stop-color:#4DD812"/>
			<stop  offset="0.4135" style="stop-color:#42CE27"/>
			<stop  offset="0.7146" style="stop-color:#3BC834"/>
			<stop  offset="1" style="stop-color:#39C638"/>
		</linearGradient>
		<rect x="42.7" y="6" class="st6" width="88.8" height="84.9"/>
	</g>
	<path class="st5" d="M90.1,57.3c5.9-1.3,9.7-7.2,8.3-13.1c-1.3-5.9-7.2-9.7-13.1-8.3c-5.9,1.3-9.7,7.2-8.3,13.1
		C78.3,54.9,84.1,58.6,90.1,57.3"/>
	<path class="st5" d="M64.5,51.7c1.3,5.9,7.2,9.7,13.1,8.3l-4.8-21.5C66.9,39.9,63.2,45.8,64.5,51.7"/>
	<path class="st5" d="M97.7,33L97.7,33l4.8,21.5c5.9-1.3,9.7-7.2,8.3-13.1C109.5,35.5,103.6,31.7,97.7,33"/>
	<path class="st5" d="M92.8,69.7c5.9-1.3,9.7-7.2,8.3-13.1l-21.5,4.8C81,67.3,86.9,71,92.8,69.7"/>
	<path class="st5" d="M74.2,36.5L74.2,36.5l21.5-4.8h0c-1.3-5.9-7.2-9.7-13.1-8.3C76.6,24.7,72.8,30.6,74.2,36.5"/>
	<path class="st5" d="M62.3,39.2l10.2-2.3l-2.3-10.2C64.6,28,61,33.6,62.3,39.2"/>
	<path class="st5" d="M95,21.2L95,21.2l2.3,10.2l10.2-2.3C106.2,23.5,100.7,19.9,95,21.2"/>
	<path class="st5" d="M67.8,64L78,61.7l2.3,10.2C74.7,73.2,69.1,69.6,67.8,64"/>
	<path class="st5" d="M105.1,66.4L105.1,66.4l-2.3-10.2l10.2-2.3C114.3,59.5,110.7,65.1,105.1,66.4"/>
	<path class="st5" d="M114.5,50.2l-4.1-18.5c3.6,1.2,6.4,4.1,7.3,8.1C118.6,43.8,117.3,47.7,114.5,50.2"/>
	<path class="st5" d="M60.8,42.9l4.1,18.5c-3.6-1.2-6.4-4.1-7.3-8.1C56.7,49.3,58.1,45.4,60.8,42.9"/>
	<path class="st5" d="M91.4,19.7l-18.5,4.1c1.2-3.6,4.1-6.4,8.1-7.3C84.9,15.6,88.8,17,91.4,19.7"/>
	<path class="st5" d="M84,73.4l18.5-4.1c-1.2,3.6-4.1,6.4-8.1,7.3C90.5,77.5,86.6,76.1,84,73.4"/>
</g>
</svg>
