<?xml version="1.0" encoding="utf-8"?>
<!-- Generator: Adobe Illustrator 21.0.0, SVG Export Plug-In . SVG Version: 6.00 Build 0)  -->
<svg version="1.1" id="musique-svg" xmlns="http://www.w3.org/2000/svg" xmlns:xlink="http://www.w3.org/1999/xlink" x="0px" y="0px"
	 viewBox="0 0 276.8 72" style="enable-background:new 0 0 276.8 72;" xml:space="preserve">
<style type="text/css">
	.musique-svg-st0{fill:#4B5FDE;}
	.musique-svg-st1{fill:#FFFFFF;}
</style>
<path class="musique-svg-st0" d="M262.2,0H14.6C6.6,0,0,6.6,0,14.6v42.9C0,65.4,6.6,72,14.6,72h247.7c8,0,14.6-6.6,14.6-14.6V14.6
	C276.8,6.6,270.2,0,262.2,0z"/>
<g>
	<g>
		<path class="musique-svg-st1" d="M19.6,27.7c0-1.1,0.9-2,2-2c1.1,0,2,0.9,2,2v16.7c0,1.1-0.8,2.1-2,2.1c-1.1,0-2-0.9-2-2.1V27.7z"/>
		<path class="musique-svg-st1" d="M46.8,27.7c0-1.1,0.9-2,2-2c1.1,0,2,0.9,2,2v16.7c0,1.1-0.8,2.1-2,2.1c-1.1,0-2-0.9-2-2.1V27.7z"/>
		<path class="musique-svg-st1" d="M39.8,40.2c0.4-0.7,0.8-1.2,1.7-1.2c0.9,0,1.9,0.8,1.9,1.9c0,0.4,0,0.6-0.2,1.1c-1.3,2.9-4.4,4.6-7.6,4.6
			c-4.9,0-8.3-3.6-8.7-8.3c-0.1-1.5-0.1-3.1,0-4.6c0.4-4.7,3.8-8.3,8.7-8.3c3.3,0,6.4,1.7,7.6,4.6c0.2,0.5,0.2,0.7,0.2,1.1
			c0,1.1-1,1.9-1.9,1.9c-0.9,0-1.4-0.6-1.7-1.2c-0.8-1.6-2.3-2.6-4.1-2.6c-2.8,0-4.6,2.1-4.8,4.9c-0.1,1.2-0.1,2.5,0,3.7
			c0.2,2.9,1.9,4.8,4.8,4.8C37.5,42.8,39,41.8,39.8,40.2"/>
	</g>
	<g>
		<path class="musique-svg-st1" d="M196.1,25.7c-0.7,0-1.3,0.6-1.3,1.3v18c0,0.7,0.6,1.3,1.3,1.3c0.7,0,1.3-0.6,1.3-1.3v-18
			C197.4,26.3,196.9,25.7,196.1,25.7"/>
		<path class="musique-svg-st1" d="M250.1,25.8c-4.9,0-8.2,3.2-8.6,8.1c-0.1,1.2-0.1,2.7,0,4.2c0.3,5.4,3.6,8.6,8.8,8.6c2.4,0,4.8-0.5,6.1-1.3
			c0.6-0.4,0.7-0.9,0.7-1.2c0-0.6-0.5-1.2-1.3-1.2c-0.2,0-0.4,0-0.7,0.1c-1.9,0.7-3.5,1-4.9,1c-3.8,0-6.2-2.4-6.2-6.3l0-0.2h11.9
			c1.6,0,2.4-0.8,2.4-2.2V34C258.4,29.1,255,25.8,250.1,25.8 M250,28.3c1.8,0,3.3,0.6,4.3,1.7c1.1,1.1,1.5,2.8,1.4,4.6
			c0,0.3-0.1,0.4-0.4,0.4H244c0-2.3,0.5-4,1.7-5.2C246.7,28.8,248.2,28.3,250,28.3"/>
		<path class="musique-svg-st1" d="M146,25.8c-3.1,0-5.1,1.4-6.4,2.2l0,0h0l0,0c-1.4-1.5-3.3-2.2-5.8-2.2c-2.5,0-5.1,0.8-6.7,2
			c-0.6,0.4-0.8,0.8-0.8,1.4v15.9c0,0.8,0.5,1.3,1.3,1.3c0.8,0,1.3-0.6,1.3-1.3V29.6h0c0.2-0.2,1.7-1.3,5-1.3c3.2,0,4.6,1.6,4.6,5
			v11.8c0,0.8,0.6,1.3,1.3,1.3c0.7,0,1.3-0.6,1.3-1.3V33c0-1.3-0.2-2.2-0.3-2.8v0h0c1.6-1.3,3.3-1.9,5.2-1.9c3.2,0,4.8,1.6,4.8,5
			v11.8c0,0.8,0.6,1.3,1.3,1.3c0.7,0,1.3-0.6,1.3-1.3V33C153.4,28.3,150.8,25.8,146,25.8"/>
		<path class="musique-svg-st1" d="M236.8,25.8c-0.7,0-1.3,0.6-1.3,1.3v10.8c0,3.7-2.3,6.2-5.8,6.2c-3.4,0-5.7-2.5-5.7-6.2V27.1
			c0-0.7-0.6-1.3-1.3-1.3c-0.7,0-1.3,0.6-1.3,1.3v10.9c0,5,3.5,8.7,8.3,8.7c4.8,0,8.3-3.6,8.3-8.7V27.1
			C238.1,26.3,237.5,25.8,236.8,25.8"/>
		<path class="musique-svg-st1" d="M172.4,25.8c-0.7,0-1.3,0.6-1.3,1.3v10.8c0,3.7-2.3,6.2-5.7,6.2c-3.4,0-5.7-2.5-5.7-6.2V27.1
			c0-0.7-0.6-1.3-1.3-1.3c-0.7,0-1.3,0.6-1.3,1.3v10.9c0,5,3.5,8.7,8.3,8.7c4.8,0,8.3-3.6,8.3-8.7V27.1
			C173.7,26.3,173.1,25.8,172.4,25.8"/>
		<path class="musique-svg-st1" d="M218.3,34c-0.3-4.7-4.1-8.2-8.7-8.2c-4.6,0-8.3,3.5-8.6,8.2c-0.1,1.6-0.1,2.8,0,4.4c0.3,4.8,4,8.2,8.6,8.2
			c4.6,0,8.4-3.5,8.7-8.2C218.4,36.8,218.4,35.5,218.3,34 M209.5,44.1c-3.2,0-5.7-2.4-6-5.8c-0.1-1.5-0.1-2.7,0-4.2
			c0.3-3.4,2.8-5.8,6-5.8c3.3,0,5.8,2.4,6.1,5.8c0.1,1.5,0.1,2.7,0,4.2C215.3,41.7,212.8,44.1,209.5,44.1"/>
		<path class="musique-svg-st1" d="M213.4,50.2c0-0.7-0.6-1.3-1.3-1.3h-4.9c-0.7,0-1.3,0.6-1.3,1.3c0,0.7,0.6,1.3,1.3,1.3h4.9
			C212.8,51.5,213.4,51,213.4,50.2"/>
		<path class="musique-svg-st1" d="M191.5,40.8c0-3.3-1.9-4.8-7.2-5.8c-3.8-0.8-5-1.5-5-3.3c0-1.3,0.6-3.4,4.5-3.4c1.8,0,3.1,0.6,4.1,1.2
			c0.3,0.2,0.6,0.3,1,0.3c0.6,0,1.2-0.6,1.2-1.2c0-0.4-0.2-0.8-0.5-1.1c-1.2-1-3.4-1.7-5.8-1.7c-4.3,0-7.1,2.3-7.1,5.9
			c0,3.1,2.1,4.8,7,5.8c4,0.8,5.2,1.5,5.2,3.3c0,1.1-0.4,1.9-1.3,2.5c-0.8,0.5-2,0.8-3.5,0.8c-2.6,0-4-0.6-5.5-1.7
			c-0.4-0.3-0.7-0.4-0.9-0.4c-0.8,0-1.3,0.6-1.3,1.3c0,0.5,0.2,0.9,0.7,1.1c2.2,1.5,4.4,2.1,7.1,2.1c2.3,0,4.1-0.5,5.4-1.5
			c0.7-0.5,1.2-1.1,1.5-1.8C191.3,42.5,191.5,41.7,191.5,40.8"/>
	</g>
	<g>
		<circle class="musique-svg-st1" cx="88.5" cy="36" r="9"/>
		<g>
			<path class="musique-svg-st1" d="M69.2,36c0,4.9,4,9,9,9V27C73.2,27,69.2,31.1,69.2,36z"/>
			<path class="musique-svg-st1" d="M98.9,27L98.9,27V45l0,0c4.9,0,9-4,9-9S103.8,27,98.9,27z"/>
			<path class="musique-svg-st1" d="M88.5,55.3c4.9,0,9-4,9-9H79.6C79.6,51.3,83.6,55.3,88.5,55.3z"/>
			<path class="musique-svg-st1" d="M79.6,25.7L79.6,25.7l17.9,0v0c0-4.9-4-9-9-9C83.6,16.7,79.6,20.7,79.6,25.7z"/>
		</g>
		<g>
			<path class="musique-svg-st1" d="M69.7,25.7h8.5v-8.5C73.5,17.2,69.7,21,69.7,25.7z"/>
			<path class="musique-svg-st1" d="M98.9,17.2L98.9,17.2v8.5h8.5C107.4,21,103.6,17.2,98.9,17.2z"/>
			<path class="musique-svg-st1" d="M69.7,46.3h8.5v8.5C73.5,54.8,69.7,51,69.7,46.3z"/>
			<path class="musique-svg-st1" d="M98.9,54.8L98.9,54.8v-8.5h8.5C107.4,51,103.6,54.8,98.9,54.8z"/>
		</g>
		<g>
			<g>
				<path class="musique-svg-st1" d="M109.2,43.7V28.3c2.6,1.6,4.4,4.4,4.4,7.7C113.6,39.3,111.8,42.1,109.2,43.7z"/>
				<path class="musique-svg-st1" d="M67.8,28.3v15.4c-2.6-1.6-4.4-4.4-4.4-7.7C63.5,32.7,65.2,29.9,67.8,28.3z"/>
			</g>
			<g>
				<path class="musique-svg-st1" d="M96.2,15.3H80.8c1.6-2.6,4.4-4.4,7.7-4.4C91.8,10.9,94.7,12.7,96.2,15.3z"/>
				<path class="musique-svg-st1" d="M80.8,56.7h15.4c-1.6,2.6-4.4,4.4-7.7,4.4C85.3,61.1,82.4,59.3,80.8,56.7z"/>
			</g>
		</g>
	</g>
</g>
</svg>
