<?xml version="1.0" encoding="utf-8"?>
<!-- Generator: Adobe Illustrator 21.1.0, SVG Export Plug-In . SVG Version: 6.00 Build 0)  -->
<svg version="1.1" xmlns="http://www.w3.org/2000/svg" xmlns:xlink="http://www.w3.org/1999/xlink" x="0px" y="0px"
	 viewBox="0 0 480 480" style="enable-background:new 0 0 480 480;" xml:space="preserve">
<g id="Icones">
	<path d="M44.5147,248.6076l16.9732,16.9732c4.6863,4.6863,12.2843,4.6863,16.9706,0L216.032,128.0071V420c0,6.6274,5.3726,12,12,12
		h24c6.6274,0,12-5.3726,12-12V128.0071l137.5735,137.5736c4.6863,4.6863,12.2843,4.6863,16.9706,0l16.9732-16.9732
		c4.6853-4.6853,4.6864-12.2813,0.0026-16.968L248.5199,44.4931c-4.6869-4.6898-12.2889-4.6898-16.9758,0L44.5121,231.6396
		C39.8283,236.3263,39.8294,243.9223,44.5147,248.6076z"/>
</g>
<g id="Mesures_x2C__etc." style="display:none;">
</g>
</svg>
