<?xml version="1.0" encoding="utf-8"?>
<!-- Generator: Adobe Illustrator 21.1.0, SVG Export Plug-In . SVG Version: 6.00 Build 0)  -->
<svg version="1.1" xmlns="http://www.w3.org/2000/svg" xmlns:xlink="http://www.w3.org/1999/xlink" x="0px" y="0px"
	 viewBox="0 0 480 480" style="enable-background:new 0 0 480 480;" xml:space="preserve">
<g id="Icones">
	<path d="M435.5493,231.3924l-16.9732-16.9732c-4.6863-4.6863-12.2843-4.6863-16.9706,0L264.032,351.9929V60
		c0-6.6274-5.3726-12-12-12h-24c-6.6274,0-12,5.3726-12,12v291.9929L78.4585,214.4193c-4.6863-4.6863-12.2843-4.6863-16.9706,0
		l-16.9732,16.9732c-4.6853,4.6853-4.6864,12.2813-0.0026,16.968l187.032,187.1465c4.6869,4.6898,12.2889,4.6898,16.9758,0
		l187.032-187.1465C440.2358,243.6737,440.2346,236.0777,435.5493,231.3924z"/>
</g>
<g id="Mesures_x2C__etc." style="display:none;">
</g>
</svg>
