<?xml version="1.0" encoding="utf-8"?>
<!-- Generator: Adobe Illustrator 22.0.0, SVG Export Plug-In . SVG Version: 6.00 Build 0)  -->
<svg version="1.1" id="Layer_1" xmlns="http://www.w3.org/2000/svg" xmlns:xlink="http://www.w3.org/1999/xlink" x="0px" y="0px"
	 viewBox="0 0 402.8 100" style="enable-background:new 0 0 402.8 100;" xml:space="preserve">
<style type="text/css">
	.st0{fill:#010101;}
</style>
<g>
	<path class="st0" d="M115.1,29.4c-1.4,0-2.6,1.2-2.6,2.7v36c0,1.5,1.2,2.7,2.6,2.7c1.5,0,2.6-1.1,2.6-2.7v-36
		C117.7,30.6,116.6,29.4,115.1,29.4"/>
	<path class="st0" d="M106.2,46.9c-0.7-11.1-7.5-17.5-18.7-17.5h-9.9c-2.6,0-4.2,1.6-4.2,4.1v33.1c0,2.4,1.8,4.1,4.2,4.1h9.9
		c11.1,0,18.1-6.5,18.7-17.5C106.3,51.4,106.3,49,106.2,46.9 M101,53.2c-0.5,8.3-5.2,12.7-13.5,12.7h-8.9V34.4h8.9
		c8.4,0,13.1,4.4,13.5,12.7C101.1,48.8,101.1,51.2,101,53.2"/>
	<path class="st0" d="M30.5,66.5L20.3,53.9C24.8,53,30,50.3,30,42.2c0-6.4-4.1-12.8-13.4-12.8H4.7c-2.5,0-4.2,1.7-4.2,4.1v34.6
		c0,1.4,1.2,2.7,2.6,2.7s2.6-1.2,2.6-2.7V54.8h6.8c1.6,0,2.2,0.7,3.1,1.8l10.8,13.3c0.5,0.6,1.2,0.9,1.9,0.9c0.6,0,1.3-0.2,1.8-0.7
		C31.2,69.2,31.4,67.5,30.5,66.5 M24.8,42.2c0,5.1-2.8,7.6-8.7,7.6H5.8V34.5h10.6C21.8,34.5,24.8,37.2,24.8,42.2"/>
	<path class="st0" d="M50.7,29.4c-5,0-9.7,1.5-12.1,2.8c-1,0.5-1.6,1.5-1.6,2.6c0,0.6,0.2,1.3,0.7,1.7c0.4,0.5,1.1,0.7,1.8,0.7
		c0.5,0,1-0.1,1.4-0.3c3.6-1.5,6.8-2.2,9.8-2.2c7.2,0,10.2,2.9,10.2,9.8v2.3c-4.6-1.2-7.7-1.7-11.3-1.7c-9.5,0-15.7,5.1-15.7,12.9
		c0,8.2,5.7,13.2,15.3,13.2c7.8,0,13.7-2.8,15.8-4.3c1-0.7,1.2-1.4,1.2-2.4V43.8C66.2,34.1,61.1,29.4,50.7,29.4 M50,66.1
		c-7.2,0-10.8-2.7-10.8-8c0-5,4-8,10.8-8c3.6,0,6.5,0.6,11,1.9v11C58.5,64.8,53.7,66.1,50,66.1"/>
	<path class="st0" d="M159.1,45.6c-0.7-9.4-8.2-16.5-17.5-16.5s-16.5,6.9-17.3,16.5c-0.2,3.1-0.2,5.7,0,8.9
		c0.7,9.5,8,16.5,17.3,16.5s16.8-7.1,17.5-16.5C159.4,51.2,159.4,48.7,159.1,45.6 M141.7,65.9c-6.5,0-11.5-4.8-12.1-11.7
		c-0.2-3-0.2-5.4,0-8.4c0.6-6.9,5.6-11.7,12.1-11.7c6.6,0,11.6,4.8,12.2,11.7c0.3,2.9,0.3,5.4,0,8.4C153.3,61,148.3,65.9,141.7,65.9
		"/>
	<path class="st0" d="M163.3,52.6c0,1.4,1.2,2.5,2.6,2.5h10.4c1.4,0,2.5-1.1,2.5-2.5s-1.1-2.5-2.5-2.5h-10.4
		C164.4,50.1,163.3,51.2,163.3,52.6"/>
	<path class="st0" d="M312,29.4c-5,0-9.7,1.5-12.2,2.8c-1,0.5-1.6,1.5-1.6,2.6c0,0.6,0.2,1.3,0.7,1.7c0.5,0.5,1.1,0.7,1.8,0.7
		c0.5,0,0.9-0.1,1.4-0.3c3.6-1.5,6.8-2.2,9.8-2.2c7.2,0,10.2,2.9,10.2,9.8v2.3c-4.6-1.2-7.7-1.7-11.3-1.7c-9.5,0-15.7,5.1-15.7,12.9
		c0,8.2,5.7,13.2,15.3,13.2c7.8,0,13.7-2.8,15.8-4.3c1-0.7,1.2-1.4,1.2-2.4V43.8C327.4,34.1,322.4,29.4,312,29.4 M311.2,66.1
		c-7.2,0-10.8-2.7-10.8-8c0-5,4-8,10.8-8c3.6,0,6.5,0.6,11,1.9v11C319.7,64.8,315,66.1,311.2,66.1"/>
	<path class="st0" d="M387.3,29.4c-5,0-9.7,1.5-12.1,2.8c-1,0.5-1.6,1.5-1.6,2.6c0,0.6,0.2,1.3,0.7,1.7c0.5,0.5,1.1,0.7,1.8,0.7
		c0.5,0,1-0.1,1.4-0.3c3.6-1.5,6.8-2.2,9.8-2.2c7.2,0,10.2,2.9,10.2,9.8v2.3c-4.6-1.2-7.7-1.7-11.3-1.7c-9.5,0-15.7,5.1-15.7,12.9
		c0,8.2,5.7,13.2,15.3,13.2c7.8,0,13.7-2.8,15.8-4.3c0.9-0.7,1.2-1.4,1.2-2.4V43.8C402.8,34.1,397.7,29.4,387.3,29.4 M386.5,66.1
		c-7.2,0-10.8-2.7-10.8-8c0-5,4-8,10.8-8c3.6,0,6.5,0.6,11,1.9v11C395,64.8,390.3,66.1,386.5,66.1"/>
	<path class="st0" d="M234.8,29.4c-5,0-9.7,1.5-12.1,2.8c-1,0.5-1.6,1.5-1.6,2.6c0,0.6,0.2,1.3,0.7,1.7c0.4,0.5,1.1,0.7,1.8,0.7
		c0.5,0,1-0.1,1.4-0.3c3.6-1.5,6.8-2.2,9.8-2.2c7.2,0,10.2,2.9,10.2,9.8v2.3c-4.6-1.2-7.7-1.7-11.3-1.7c-9.5,0-15.7,5.1-15.7,12.9
		c0,8.2,5.7,13.2,15.3,13.2c7.8,0,13.7-2.8,15.8-4.3c1-0.7,1.2-1.4,1.2-2.4V43.8C250.2,34.1,245.2,29.4,234.8,29.4 M234,66.1
		c-7.2,0-10.8-2.7-10.8-8c0-5,4-8,10.8-8c3.6,0,6.5,0.6,11,1.9v11C242.5,64.8,237.8,66.1,234,66.1"/>
	<path class="st0" d="M212.5,57.4c-1.1,0-1.9,0.6-2.4,1.6c-1.8,4.2-5.8,6.8-10.4,6.8c-6.4,0-11.1-4.7-11.7-11.7
		c-0.2-3-0.2-5.4,0-8.3c0.6-7,5.3-11.8,11.7-11.8c4.6,0,8.6,2.6,10.4,6.8c0.3,0.6,0.9,1.6,2.4,1.6c1.2,0,2.5-1,2.5-2.4
		c0-0.4-0.1-0.7-0.2-1.2c-2.3-5.9-8.4-9.8-15.1-9.8c-9.2,0-16.1,6.8-16.8,16.5c-0.2,3.1-0.2,5.7,0,8.9c0.7,9.7,7.6,16.5,16.8,16.5
		c6.7,0,12.7-4,15.1-9.9c0.1-0.4,0.2-0.7,0.2-1.1C215,58.5,213.7,57.4,212.5,57.4"/>
	<path class="st0" d="M274.3,29.6c-7.5,0-13.3,2.3-15.9,4.3c-0.9,0.6-1.2,1.3-1.2,2.6v32c0,1.5,1.1,2.7,2.6,2.7s2.6-1.1,2.6-2.7v-31
		c2.4-1.5,7-2.9,11.8-2.9c7.1,0,11.4,4.2,11.4,11.2v22.7c0,1.5,1.1,2.7,2.6,2.7s2.6-1.1,2.6-2.7V45.6
		C290.7,35.3,284.9,29.6,274.3,29.6"/>
	<path class="st0" d="M367.2,46.9c-0.7-11.1-7.5-17.5-18.7-17.5h-9.9c-2.6,0-4.2,1.6-4.2,4.1v33.1c0,2.4,1.7,4.1,4.2,4.1h9.9
		c11.1,0,18.1-6.5,18.7-17.5C367.3,51.4,367.3,49,367.2,46.9 M362,53.2c-0.5,8.3-5.2,12.7-13.5,12.7h-8.9V34.4h8.9
		c8.4,0,13.1,4.4,13.5,12.7C362.1,48.8,362.1,51.2,362,53.2"/>
</g>
</svg>
