<?xml version="1.0" encoding="utf-8"?>
<!-- Generator: Adobe Illustrator 21.0.0, SVG Export Plug-In . SVG Version: 6.00 Build 0)  -->
<svg version="1.1" id="tele-svg" xmlns="http://www.w3.org/2000/svg" xmlns:xlink="http://www.w3.org/1999/xlink" x="0px" y="0px"
	 viewBox="0 0 208.5 72.1" style="enable-background:new 0 0 208.5 72.1;" xml:space="preserve">
<style type="text/css">
	.tele-svg-st0{fill:#C6007E;}
	.tele-svg-st1{fill:#FFFFFF;}
	.tele-svg-st2{display:none;}
</style>
<g id="ICI_télé">
	<path class="tele-svg-st0" d="M193.9,0H14.6C6.6,0,0,6.6,0,14.6v42.9c0,8,6.6,14.6,14.6,14.6h179.3c8,0,14.6-6.6,14.6-14.6V14.6
		C208.4,6.6,201.9,0,193.9,0z"/>
	<g>
		<path class="tele-svg-st1" d="M143.9,22.4c0,0.7,0.6,1.3,1.3,1.3h4.9c0.7,0,1.3-0.6,1.3-1.3s-0.6-1.3-1.3-1.3h-4.9
			C144.5,21.1,143.9,21.7,143.9,22.4"/>
		<path class="tele-svg-st1" d="M147.9,25.8c-4.8,0-8.2,3.2-8.6,8c-0.1,1.2-0.1,2.7,0,4.2c0.3,5.4,3.6,8.6,8.8,8.6c2.4,0,4.8-0.5,6.1-1.3
			c0.6-0.4,0.7-0.9,0.7-1.2c0-0.6-0.5-1.2-1.3-1.2c-0.2,0-0.4,0-0.7,0.1c-1.9,0.7-3.5,1-4.9,1c-3.8,0-6.2-2.4-6.2-6.3v-0.2h11.9
			c1.6,0,2.4-0.8,2.4-2.2V34C156.2,29.1,152.9,25.8,147.9,25.8 M147.9,28.3c1.8,0,3.3,0.6,4.3,1.7c1.1,1.2,1.5,2.8,1.4,4.6
			c0,0.3-0.1,0.4-0.4,0.4h-11.3c0-2.3,0.5-4,1.7-5.2C144.6,28.9,146,28.3,147.9,28.3"/>
		<path class="tele-svg-st1" d="M177.8,22.4c0,0.7,0.6,1.3,1.3,1.3h4.9c0.7,0,1.3-0.6,1.3-1.3s-0.6-1.3-1.3-1.3h-4.9
			C178.3,21.1,177.8,21.7,177.8,22.4"/>
		<path class="tele-svg-st1" d="M181.7,25.8c-4.8,0-8.2,3.2-8.6,8c-0.1,1.2-0.1,2.7,0,4.2c0.3,5.4,3.6,8.6,8.8,8.6c2.4,0,4.8-0.5,6.1-1.3
			c0.6-0.4,0.7-0.9,0.7-1.2c0-0.6-0.5-1.2-1.3-1.2c-0.2,0-0.4,0-0.7,0.1c-1.9,0.7-3.5,1-4.9,1c-3.8,0-6.2-2.4-6.2-6.3v-0.2h11.9
			c1.6,0,2.4-0.8,2.4-2.2V34C190,29.2,186.7,25.8,181.7,25.8 M181.7,28.4c1.8,0,3.3,0.6,4.3,1.7c1.1,1.1,1.5,2.8,1.4,4.6
			c0,0.3-0.1,0.4-0.4,0.4h-11.3c0-2.3,0.5-4,1.7-5.2C178.4,28.9,179.8,28.4,181.7,28.4"/>
		<path class="tele-svg-st1" d="M171,43.8h-9.2V27.1c0-0.8-0.6-1.3-1.3-1.3s-1.3,0.6-1.3,1.3v18c0,0.7,0.6,1.3,1.3,1.3H171
			c0.8,0,1.3-0.6,1.3-1.3C172.3,44.4,171.7,43.8,171,43.8"/>
		<path class="tele-svg-st1" d="M137.5,25.8h-12.7c-0.7,0-1.3,0.6-1.3,1.3s0.6,1.3,1.3,1.3h5.1v16.7c0,0.7,0.6,1.3,1.3,1.3s1.3-0.6,1.3-1.3
			V28.4h5c0.8,0,1.3-0.6,1.3-1.3C138.8,26.4,138.2,25.8,137.5,25.8"/>
	</g>
	<g>
		<path class="tele-svg-st1" d="M19.7,27.7c0-1.1,0.9-2,2-2s2,0.9,2,2v16.7c0,1.1-0.8,2.1-2,2.1c-1.1,0-2-0.9-2-2.1V27.7z"/>
		<path class="tele-svg-st1" d="M46.8,27.7c0-1.1,0.9-2,2-2s2,0.9,2,2v16.7c0,1.1-0.8,2.1-2,2.1c-1.1,0-2-0.9-2-2.1V27.7z"/>
		<path class="tele-svg-st1" d="M39.9,40.3c0.4-0.7,0.8-1.2,1.7-1.2c0.9,0,1.9,0.8,1.9,1.9c0,0.4,0,0.6-0.2,1.1c-1.3,2.9-4.4,4.6-7.6,4.6
			c-4.9,0-8.3-3.6-8.7-8.3c-0.1-1.5-0.1-3.1,0-4.6c0.4-4.7,3.8-8.3,8.7-8.3c3.3,0,6.4,1.7,7.6,4.6c0.2,0.5,0.2,0.7,0.2,1.1
			c0,1.1-1,1.9-1.9,1.9s-1.4-0.6-1.7-1.2c-0.8-1.6-2.3-2.6-4.1-2.6c-2.8,0-4.6,2.1-4.8,4.9c-0.1,1.2-0.1,2.5,0,3.7
			c0.2,2.9,1.9,4.8,4.8,4.8C37.5,42.8,39,41.9,39.9,40.3"/>
	</g>
	<g>
		<circle class="tele-svg-st1" cx="88.6" cy="36" r="9"/>
		<g>
			<path class="tele-svg-st1" d="M69.3,36c0,4.9,4,9,9,9V27.1C73.3,27.1,69.3,31.1,69.3,36z"/>
			<path class="tele-svg-st1" d="M98.9,27.1L98.9,27.1V45l0,0c4.9,0,9-4,9-9C107.9,31.1,103.9,27.1,98.9,27.1z"/>
			<path class="tele-svg-st1" d="M88.6,55.3c4.9,0,9-4,9-9H79.7C79.6,51.3,83.6,55.3,88.6,55.3z"/>
			<path class="tele-svg-st1" d="M79.6,25.7L79.6,25.7h17.9l0,0c0-4.9-4-9-9-9C83.6,16.7,79.6,20.7,79.6,25.7z"/>
		</g>
		<g>
			<path class="tele-svg-st1" d="M69.7,25.7h8.5v-8.5C73.5,17.2,69.7,21,69.7,25.7z"/>
			<path class="tele-svg-st1" d="M98.9,17.2L98.9,17.2v8.5h8.5C107.4,21,103.6,17.2,98.9,17.2z"/>
			<path class="tele-svg-st1" d="M69.7,46.4h8.5v8.5C73.5,54.9,69.7,51.1,69.7,46.4z"/>
			<path class="tele-svg-st1" d="M98.9,54.9L98.9,54.9v-8.5h8.5C107.4,51.1,103.6,54.9,98.9,54.9z"/>
		</g>
		<g>
			<g>
				<path class="tele-svg-st1" d="M109.3,43.7V28.3c2.6,1.6,4.4,4.4,4.4,7.7C113.6,39.3,111.9,42.2,109.3,43.7z"/>
				<path class="tele-svg-st1" d="M67.9,28.3v15.4c-2.6-1.6-4.4-4.4-4.4-7.7C63.5,32.8,65.3,29.9,67.9,28.3z"/>
			</g>
			<g>
				<path class="tele-svg-st1" d="M96.3,15.3H80.9c1.6-2.6,4.4-4.4,7.7-4.4C91.8,11,94.7,12.7,96.3,15.3z"/>
				<path class="tele-svg-st1" d="M80.9,56.7h15.4c-1.6,2.6-4.4,4.4-7.7,4.4C85.3,61.1,82.4,59.3,80.9,56.7z"/>
			</g>
		</g>
	</g>
</g>
</svg>
