<?xml version="1.0" encoding="utf-8"?>
<!-- Generator: Adobe Illustrator 21.0.0, SVG Export Plug-In . SVG Version: 6.00 Build 0)  -->
<svg version="1.1" id="touttv-svg" xmlns="http://www.w3.org/2000/svg" xmlns:xlink="http://www.w3.org/1999/xlink" x="0px" y="0px"
	 viewBox="0 0 237.2 72.1" style="enable-background:new 0 0 237.2 72.1;" xml:space="preserve">
<style type="text/css">
	.touttv-svg-st0{fill:#00A5AD;}
	.touttv-svg-st1{fill:#FFFFFF;}
	.touttv-svg-st2{display:none;}
</style>
<g id="TOU.TV">
	<path class="touttv-svg-st0" d="M222.6,0h-208C6.6,0,0,6.6,0,14.6v42.9c0,8,6.6,14.6,14.6,14.6h208c8,0,14.6-6.6,14.6-14.6V14.6
		C237.1,6.6,230.6,0,222.6,0z"/>
	<g>
		<g>
			<path class="touttv-svg-st1" d="M19.7,27.7c0-1.1,0.9-2,2-2s2,0.9,2,2v16.7c0,1.1-0.8,2.1-2,2.1c-1.1,0-2-0.9-2-2.1V27.7z"/>
			<path class="touttv-svg-st1" d="M46.8,27.7c0-1.1,0.9-2,2-2s2,0.9,2,2v16.7c0,1.1-0.8,2.1-2,2.1c-1.1,0-2-0.9-2-2.1V27.7z"/>
			<path class="touttv-svg-st1" d="M39.9,40.3c0.4-0.7,0.8-1.2,1.7-1.2c0.9,0,1.9,0.8,1.9,1.9c0,0.4,0,0.6-0.2,1.1c-1.3,2.9-4.4,4.6-7.6,4.6
				c-4.9,0-8.3-3.6-8.7-8.3c-0.1-1.5-0.1-3.1,0-4.6c0.4-4.7,3.8-8.3,8.7-8.3c3.3,0,6.4,1.7,7.6,4.6c0.2,0.5,0.2,0.7,0.2,1.1
				c0,1.1-1,1.9-1.9,1.9s-1.4-0.6-1.7-1.2c-0.8-1.6-2.3-2.6-4.1-2.6c-2.8,0-4.6,2.1-4.8,4.9c-0.1,1.2-0.1,2.5,0,3.7
				c0.2,2.9,1.9,4.8,4.8,4.8C37.5,42.8,39,41.9,39.9,40.3"/>
		</g>
		<g>
			<path class="touttv-svg-st1" d="M157,34c-0.3-4.7-4.1-8.2-8.7-8.2c-4.6,0-8.3,3.5-8.6,8.2c-0.1,1.6-0.1,2.8,0,4.4c0.3,4.8,4,8.2,8.6,8.2
				s8.4-3.5,8.7-8.2C157.1,36.8,157.1,35.6,157,34 M148.2,44.1c-3.2,0-5.7-2.4-6-5.8c-0.1-1.5-0.1-2.7,0-4.2c0.3-3.4,2.8-5.8,6-5.8
				c3.3,0,5.8,2.4,6.1,5.8c0.1,1.5,0.1,2.7,0,4.2C154,41.7,151.5,44.1,148.2,44.1"/>
			<path class="touttv-svg-st1" d="M216.6,25.9c-0.1,0-0.3-0.1-0.4-0.1c-0.6,0-1.1,0.3-1.2,0.9l-6.3,17.2c0,0.1-0.1,0.2-0.2,0.2
				c-0.1,0-0.2-0.1-0.2-0.2L202,26.7c-0.2-0.5-0.7-0.8-1.2-0.8c-0.2,0-0.3,0-0.5,0.1c-0.3,0.1-0.6,0.4-0.7,0.7c-0.1,0.3-0.2,0.7,0,1
				l6.3,16.9c0.6,1.5,1.5,2.2,2.7,2.2s2.1-0.7,2.7-2.2l6.3-16.9C217.6,26.9,217.3,26.1,216.6,25.9"/>
			<path class="touttv-svg-st1" d="M175.5,25.8c-0.7,0-1.3,0.6-1.3,1.3v10.8c0,3.7-2.3,6.2-5.7,6.2s-5.7-2.5-5.7-6.2V27.1
				c0-0.7-0.6-1.3-1.3-1.3s-1.3,0.6-1.3,1.3V38c0,5,3.5,8.7,8.3,8.7s8.3-3.6,8.3-8.7V27.1C176.8,26.4,176.2,25.8,175.5,25.8"/>
			<path class="touttv-svg-st1" d="M137.5,25.8h-12.7c-0.7,0-1.3,0.6-1.3,1.3s0.6,1.3,1.3,1.3h5.1v16.7c0,0.7,0.6,1.3,1.3,1.3s1.3-0.6,1.3-1.3
				V28.4h5c0.8,0,1.3-0.6,1.3-1.3C138.8,26.4,138.2,25.8,137.5,25.8"/>
			<path class="touttv-svg-st1" d="M196.1,25.8h-12.7c-0.7,0-1.3,0.6-1.3,1.3s0.6,1.3,1.3,1.3h5.1v16.7c0,0.7,0.6,1.3,1.3,1.3s1.3-0.6,1.3-1.3
				V28.4h5c0.8,0,1.3-0.6,1.3-1.3C197.4,26.4,196.8,25.8,196.1,25.8"/>
			<path class="touttv-svg-st1" d="M181,42.8c-1,0-1.8,0.8-1.8,1.8s0.8,1.8,1.8,1.8s1.8-0.8,1.8-1.8C182.7,43.6,182,42.8,181,42.8"/>
		</g>
		<g>
			<circle class="touttv-svg-st1" cx="88.6" cy="36" r="9"/>
			<g>
				<path class="touttv-svg-st1" d="M69.3,36c0,4.9,4,9,9,9V27.1C73.3,27.1,69.3,31.1,69.3,36z"/>
				<path class="touttv-svg-st1" d="M98.9,27.1L98.9,27.1V45l0,0c4.9,0,9-4,9-9S103.9,27.1,98.9,27.1z"/>
				<path class="touttv-svg-st1" d="M88.6,55.3c4.9,0,9-4,9-9H79.7C79.6,51.3,83.6,55.3,88.6,55.3z"/>
				<path class="touttv-svg-st1" d="M79.6,25.7L79.6,25.7h17.9l0,0c0-4.9-4-9-9-9S79.6,20.7,79.6,25.7z"/>
			</g>
			<g>
				<path class="touttv-svg-st1" d="M69.7,25.7h8.5v-8.5C73.5,17.2,69.7,21,69.7,25.7z"/>
				<path class="touttv-svg-st1" d="M98.9,17.2L98.9,17.2v8.5h8.5C107.4,21,103.6,17.2,98.9,17.2z"/>
				<path class="touttv-svg-st1" d="M69.7,46.4h8.5v8.5C73.5,54.9,69.7,51.1,69.7,46.4z"/>
				<path class="touttv-svg-st1" d="M98.9,54.9L98.9,54.9v-8.5h8.5C107.4,51.1,103.6,54.9,98.9,54.9z"/>
			</g>
			<g>
				<g>
					<path class="touttv-svg-st1" d="M109.3,43.7V28.3c2.6,1.6,4.4,4.4,4.4,7.7C113.6,39.3,111.9,42.2,109.3,43.7z"/>
					<path class="touttv-svg-st1" d="M67.9,28.3v15.4c-2.6-1.6-4.4-4.4-4.4-7.7C63.5,32.8,65.3,29.9,67.9,28.3z"/>
				</g>
				<g>
					<path class="touttv-svg-st1" d="M96.3,15.3H80.9c1.6-2.6,4.4-4.4,7.7-4.4C91.8,11,94.7,12.7,96.3,15.3z"/>
					<path class="touttv-svg-st1" d="M80.9,56.7h15.4c-1.6,2.6-4.4,4.4-7.7,4.4C85.3,61.1,82.4,59.3,80.9,56.7z"/>
				</g>
			</g>
		</g>
	</g>
</g>
</svg>
